<?xml version="1.0" encoding="iso-8859-1"?>
<!-- Uploaded to: SVG Repo, www.svgrepo.com, Generator: SVG Repo Mixer Tools -->
<svg height="800px" width="800px" version="1.1" id="Layer_1" xmlns="http://www.w3.org/2000/svg" xmlns:xlink="http://www.w3.org/1999/xlink" 
	 viewBox="0 0 512 512" xml:space="preserve">
<path style="fill:#F6D76F;" d="M460.266,122.046H51.734c-9.702,0-17.089,7.866-17.089,17.568v331.151
	c0,9.702,7.626,17.715,17.328,17.715s17.328-8.05,17.328-17.419h373.398c0,9.37,7.626,17.419,17.328,17.419
	c9.702,0,17.328-8.013,17.328-17.715V139.614C477.355,129.912,469.968,122.046,460.266,122.046z"/>
<path style="fill:#FAEAB6;" d="M253.658,122.046H51.734c-9.702,0-17.089,7.866-17.089,17.568v331.151
	c0,9.702,7.626,17.715,17.328,17.715s17.328-8.05,17.328-17.419h184.356V122.046H253.658z"/>
<polygon style="fill:#2C6991;" points="477.355,139.614 253.462,35.674 34.645,139.614 34.645,195.831 477.355,195.831 "/>
<polygon style="fill:#528FB3;" points="34.645,139.614 34.645,195.831 253.658,195.831 253.053,35.869 "/>
<path style="fill:#FAEAB6;" d="M168.368,17.81H99.849c-9.702,0-17.185,8.162-17.185,17.864v77.166
	c0,9.702,7.866,17.568,17.568,17.568s17.568-7.866,17.568-17.568v-8.855l35.084-17.78c2.894,5.729,8.619,9.667,15.476,9.667
	c9.702,0,17.369-7.866,17.369-17.568v-42.63C185.729,25.972,178.07,17.81,168.368,17.81z"/>
<path style="fill:#2C6991;" d="M320.415,308.266c0-9.702-7.866-17.568-17.568-17.568h-93.695c-9.702,0-17.568,7.866-17.568,17.568
	v162.796c0,9.702,7.866,17.568,17.568,17.568h93.695c9.702,0,17.568-7.866,17.568-17.568V308.266z"/>
<path style="fill:#528FB3;" d="M253.658,290.698h-44.505c-9.702,0-17.568,7.866-17.568,17.568v162.796
	c0,9.702,7.866,17.568,17.568,17.568h44.505V290.698z"/>
<path style="fill:#FB5858;" d="M484.571,166.919c-2.599,0.001-5.236-0.579-7.726-1.8L253.053,55.295L35.323,165.035
	c-8.663,4.371-19.227,0.885-23.595-7.781c-4.367-8.663-0.883-19.227,7.781-23.595L245.041,19.985
	c4.915-2.478,10.706-2.51,15.647-0.083l231.635,113.673c8.71,4.274,12.306,14.8,8.031,23.51
	C497.302,163.307,491.061,166.919,484.571,166.919z"/>
<path style="fill:#FF835D;" d="M253.053,55.295L35.323,165.035c-8.663,4.371-19.227,0.885-23.595-7.781
	c-4.367-8.663-0.883-19.227,7.781-23.595L245.041,19.985c2.457-1.239,5.135-1.867,7.814-1.881h0.198V55.295z"/>
<path style="fill:#2C6991;" d="M494.432,494.19H17.568C7.866,494.19,0,486.324,0,476.622c0-9.702,7.866-17.568,17.568-17.568
	h476.864c9.702,0,17.568,7.866,17.568,17.568C512,486.324,504.134,494.19,494.432,494.19z"/>
<path style="fill:#528FB3;" d="M253.658,494.19H17.568C7.866,494.19,0,486.324,0,476.622c0-9.702,7.866-17.568,17.568-17.568h236.09
	V494.19z"/>
<circle style="fill:#ABA8AB;" cx="253.293" cy="138.446" r="32.506"/>
<path style="fill:#CCCCCC;" d="M253.295,170.948c-17.953,0-32.506-14.553-32.506-32.506s14.553-32.506,32.506-32.506V170.948z"/>
</svg>